<svg id="visual" viewBox="0 0 960 540" width="960" height="540" xmlns="http://www.w3.org/2000/svg" xmlns:xlink="http://www.w3.org/1999/xlink" version="1.1"><path d="M0 361L26.7 357C53.3 353 106.7 345 160 355.2C213.3 365.3 266.7 393.7 320 407.7C373.3 421.7 426.7 421.3 480 407.8C533.3 394.3 586.7 367.7 640 365.5C693.3 363.3 746.7 385.7 800 395C853.3 404.3 906.7 400.7 933.3 398.8L960 397L960 541L933.3 541C906.7 541 853.3 541 800 541C746.7 541 693.3 541 640 541C586.7 541 533.3 541 480 541C426.7 541 373.3 541 320 541C266.7 541 213.3 541 160 541C106.7 541 53.3 541 26.7 541L0 541Z" fill="#ff655a"></path><path d="M0 419L26.7 423.5C53.3 428 106.7 437 160 446C213.3 455 266.7 464 320 455.5C373.3 447 426.7 421 480 420.2C533.3 419.3 586.7 443.7 640 442C693.3 440.3 746.7 412.7 800 399.8C853.3 387 906.7 389 933.3 390L960 391L960 541L933.3 541C906.7 541 853.3 541 800 541C746.7 541 693.3 541 640 541C586.7 541 533.3 541 480 541C426.7 541 373.3 541 320 541C266.7 541 213.3 541 160 541C106.7 541 53.3 541 26.7 541L0 541Z" fill="#ab3b50"></path><path d="M0 428L26.7 442.8C53.3 457.7 106.7 487.3 160 497C213.3 506.7 266.7 496.3 320 489.7C373.3 483 426.7 480 480 470.7C533.3 461.3 586.7 445.7 640 438.8C693.3 432 746.7 434 800 434.3C853.3 434.7 906.7 433.3 933.3 432.7L960 432L960 541L933.3 541C906.7 541 853.3 541 800 541C746.7 541 693.3 541 640 541C586.7 541 533.3 541 480 541C426.7 541 373.3 541 320 541C266.7 541 213.3 541 160 541C106.7 541 53.3 541 26.7 541L0 541Z" fill="#571d35"></path></svg>