<svg id="visual" viewBox="0 0 960 540" width="960" height="540" xmlns="http://www.w3.org/2000/svg" xmlns:xlink="http://www.w3.org/1999/xlink" version="1.1"><g><g transform="translate(69 63)"><path d="M7.7 0C7.7 3.9 3.9 7.8 0 7.8C-3.8 7.8 -7.7 3.9 -7.7 0C-7.7 -4 -3.8 -7.9 0 -7.9C3.9 -7.9 7.7 -4 7.7 0Z" fill="#FFFFFF"></path></g><g transform="translate(126 216)"><path d="M6 0C6 2.9 3 5.8 0.1 5.8C-2.8 5.8 -5.7 2.9 -5.7 0C-5.7 -2.8 -2.8 -5.6 0.1 -5.6C3 -5.6 6 -2.8 6 0Z" fill="#FFFFFF"></path></g><g transform="translate(426 27)"><path d="M6.6 -0.1C6.6 3.4 3.3 6.9 -0.1 6.9C-3.6 6.9 -7.2 3.4 -7.2 -0.1C-7.2 -3.6 -3.6 -7.2 -0.1 -7.2C3.3 -7.2 6.6 -3.6 6.6 -0.1Z" fill="#FFFFFF"></path></g><g transform="translate(22 13)"><path d="M3.8 0C3.8 2 1.9 4 0 4C-1.9 4 -3.8 2 -3.8 0C-3.8 -1.9 -1.9 -3.9 0 -3.9C1.9 -3.9 3.8 -1.9 3.8 0Z" fill="#FFFFFF"></path></g><g transform="translate(368 273)"><path d="M6.2 0C6.2 3.1 3.1 6.3 0 6.3C-3.2 6.3 -6.3 3.1 -6.3 0C-6.3 -3.1 -3.2 -6.1 0 -6.1C3.1 -6.1 6.2 -3.1 6.2 0Z" fill="#FFFFFF"></path></g><g transform="translate(374 4)"><path d="M5.6 -0.1C5.6 2.9 2.8 5.7 0 5.7C-2.8 5.7 -5.5 2.9 -5.5 -0.1C-5.5 -3 -2.8 -6 0 -6C2.8 -6 5.6 -3 5.6 -0.1Z" fill="#FFFFFF"></path></g><g transform="translate(817 49)"><path d="M5.2 0.1C5.2 2.6 2.6 5.1 0 5.1C-2.5 5.1 -5.1 2.6 -5.1 0.1C-5.1 -2.4 -2.5 -4.8 0 -4.8C2.6 -4.8 5.2 -2.4 5.2 0.1Z" fill="#FFFFFF"></path></g><g transform="translate(912 201)"><path d="M5.9 -0.1C5.9 2.9 3 5.7 0.1 5.7C-2.8 5.7 -5.5 2.9 -5.5 -0.1C-5.5 -3 -2.8 -5.9 0.1 -5.9C3 -5.9 5.9 -3 5.9 -0.1Z" fill="#FFFFFF"></path></g><g transform="translate(231 86)"><path d="M4.4 0C4.4 2.1 2.2 4.3 0 4.3C-2.1 4.3 -4.3 2.1 -4.3 0C-4.3 -2.1 -2.1 -4.1 0 -4.1C2.2 -4.1 4.4 -2.1 4.4 0Z" fill="#FFFFFF"></path></g><g transform="translate(29 213)"><path d="M6.6 0C6.6 3.2 3.3 6.5 0.2 6.5C-2.9 6.5 -5.9 3.2 -5.9 0C-5.9 -3.2 -2.9 -6.5 0.2 -6.5C3.3 -6.5 6.6 -3.2 6.6 0Z" fill="#FFFFFF"></path></g><g transform="translate(465 96)"><path d="M6.1 -0.1C6.1 3 3 6.1 0 6.1C-3 6.1 -6.1 3 -6.1 -0.1C-6.1 -3.3 -3 -6.7 0 -6.7C3 -6.7 6.1 -3.3 6.1 -0.1Z" fill="#FFFFFF"></path></g><g transform="translate(644 405)"><path d="M4.8 0C4.8 2.6 2.4 5.3 -0.1 5.3C-2.6 5.3 -5.2 2.6 -5.2 0C-5.2 -2.6 -2.6 -5.1 -0.1 -5.1C2.4 -5.1 4.8 -2.6 4.8 0Z" fill="#FFFFFF"></path></g><g transform="translate(237 418)"><path d="M4.4 0C4.4 2.1 2.2 4.3 -0.1 4.3C-2.3 4.3 -4.6 2.1 -4.6 0C-4.6 -2.1 -2.3 -4.2 -0.1 -4.2C2.2 -4.2 4.4 -2.1 4.4 0Z" fill="#FFFFFF"></path></g><g transform="translate(161 419)"><path d="M6.3 0C6.3 3.1 3.2 6.1 0.1 6.1C-3 6.1 -6 3.1 -6 0C-6 -3.1 -3 -6.2 0.1 -6.2C3.2 -6.2 6.3 -3.1 6.3 0Z" fill="#FFFFFF"></path></g><g transform="translate(957 513)"><path d="M4.2 0.1C4.2 2.3 2.1 4.6 -0.1 4.6C-2.2 4.6 -4.4 2.3 -4.4 0.1C-4.4 -2.2 -2.2 -4.4 -0.1 -4.4C2.1 -4.4 4.2 -2.2 4.2 0.1Z" fill="#FFFFFF"></path></g><g transform="translate(822 107)"><path d="M3.8 0C3.8 1.9 1.9 3.9 0 3.9C-1.9 3.9 -3.7 1.9 -3.7 0C-3.7 -1.9 -1.9 -3.8 0 -3.8C1.9 -3.8 3.8 -1.9 3.8 0Z" fill="#FFFFFF"></path></g><g transform="translate(829 213)"><path d="M6.7 0C6.7 3.3 3.3 6.6 -0.1 6.6C-3.6 6.6 -7.1 3.3 -7.1 0C-7.1 -3.2 -3.6 -6.5 -0.1 -6.5C3.3 -6.5 6.7 -3.2 6.7 0Z" fill="#FFFFFF"></path></g><g transform="translate(684 321)"><path d="M4.2 0.1C4.2 2.2 2.1 4.4 0 4.4C-2.2 4.4 -4.4 2.2 -4.4 0.1C-4.4 -2.1 -2.2 -4.2 0 -4.2C2.1 -4.2 4.2 -2.1 4.2 0.1Z" fill="#FFFFFF"></path></g><g transform="translate(130 133)"><path d="M4.8 0C4.8 2.6 2.4 5.2 -0.1 5.2C-2.5 5.2 -5 2.6 -5 0C-5 -2.5 -2.5 -5.1 -0.1 -5.1C2.4 -5.1 4.8 -2.5 4.8 0Z" fill="#FFFFFF"></path></g><g transform="translate(311 516)"><path d="M3.7 0C3.7 2 1.9 4 -0.1 4C-2 4 -4 2 -4 0C-4 -1.9 -2 -3.9 -0.1 -3.9C1.9 -3.9 3.7 -1.9 3.7 0Z" fill="#FFFFFF"></path></g><g transform="translate(37 346)"><path d="M3.9 0C3.9 1.9 2 3.7 0 3.7C-1.9 3.7 -3.9 1.9 -3.9 0C-3.9 -1.8 -1.9 -3.5 0 -3.5C2 -3.5 3.9 -1.8 3.9 0Z" fill="#FFFFFF"></path></g><g transform="translate(664 159)"><path d="M6.6 0C6.6 3.1 3.3 6.2 0.2 6.2C-3 6.2 -6 3.1 -6 0C-6 -3.1 -3 -6.3 0.2 -6.3C3.3 -6.3 6.6 -3.1 6.6 0Z" fill="#FFFFFF"></path></g><g transform="translate(198 477)"><path d="M4.3 0C4.3 2.2 2.1 4.5 0 4.5C-2.2 4.5 -4.4 2.2 -4.4 0C-4.4 -2.3 -2.2 -4.5 0 -4.5C2.1 -4.5 4.3 -2.3 4.3 0Z" fill="#FFFFFF"></path></g><g transform="translate(645 215)"><path d="M6.5 0C6.5 3.4 3.3 6.8 0 6.8C-3.2 6.8 -6.4 3.4 -6.4 0C-6.4 -3.5 -3.2 -6.9 0 -6.9C3.3 -6.9 6.5 -3.5 6.5 0Z" fill="#FFFFFF"></path></g><g transform="translate(394 376)"><path d="M5.1 0C5.1 2.4 2.6 4.8 0.1 4.8C-2.4 4.8 -4.8 2.4 -4.8 0C-4.8 -2.4 -2.4 -4.8 0.1 -4.8C2.6 -4.8 5.1 -2.4 5.1 0Z" fill="#FFFFFF"></path></g><g transform="translate(161 390)"><path d="M6 -0.2C6 2.9 3 5.9 0 5.9C-3.1 5.9 -6.1 2.9 -6.1 -0.2C-6.1 -3.3 -3.1 -6.7 0 -6.7C3 -6.7 6 -3.3 6 -0.2Z" fill="#FFFFFF"></path></g><g transform="translate(94 238)"><path d="M6.6 0.1C6.6 3.5 3.3 7.1 -0.1 7.1C-3.4 7.1 -6.9 3.5 -6.9 0.1C-6.9 -3.4 -3.4 -6.9 -0.1 -6.9C3.3 -6.9 6.6 -3.4 6.6 0.1Z" fill="#FFFFFF"></path></g><g transform="translate(368 375)"><path d="M5.5 0.1C5.5 2.9 2.8 5.8 0 5.8C-2.8 5.8 -5.6 2.9 -5.6 0.1C-5.6 -2.8 -2.8 -5.6 0 -5.6C2.8 -5.6 5.5 -2.8 5.5 0.1Z" fill="#FFFFFF"></path></g><g transform="translate(480 69)"><path d="M4.8 -0.1C4.8 2.4 2.4 4.7 -0.1 4.7C-2.6 4.7 -5.1 2.4 -5.1 -0.1C-5.1 -2.5 -2.6 -5 -0.1 -5C2.4 -5 4.8 -2.5 4.8 -0.1Z" fill="#FFFFFF"></path></g><g transform="translate(874 255)"><path d="M6.1 0.1C6.1 3.2 3 6.5 0 6.5C-3 6.5 -6.1 3.2 -6.1 0.1C-6.1 -3 -3 -6.1 0 -6.1C3 -6.1 6.1 -3 6.1 0.1Z" fill="#FFFFFF"></path></g><g transform="translate(817 393)"><path d="M4.4 0C4.4 2.2 2.2 4.4 0 4.4C-2.1 4.4 -4.3 2.2 -4.3 0C-4.3 -2.2 -2.1 -4.3 0 -4.3C2.2 -4.3 4.4 -2.2 4.4 0Z" fill="#FFFFFF"></path></g><g transform="translate(482 33)"><path d="M5.9 0C5.9 2.8 2.9 5.7 0.1 5.7C-2.8 5.7 -5.6 2.8 -5.6 0C-5.6 -2.9 -2.8 -5.8 0.1 -5.8C2.9 -5.8 5.9 -2.9 5.9 0Z" fill="#FFFFFF"></path></g><g transform="translate(914 124)"><path d="M4.6 -0.1C4.6 2.1 2.3 4.1 0 4.1C-2.3 4.1 -4.5 2.1 -4.5 -0.1C-4.5 -2.2 -2.3 -4.4 0 -4.4C2.3 -4.4 4.6 -2.2 4.6 -0.1Z" fill="#FFFFFF"></path></g><g transform="translate(746 339)"><path d="M5.5 0C5.5 2.8 2.8 5.6 0 5.6C-2.7 5.6 -5.5 2.8 -5.5 0C-5.5 -2.8 -2.7 -5.6 0 -5.6C2.8 -5.6 5.5 -2.8 5.5 0Z" fill="#FFFFFF"></path></g><g transform="translate(64 295)"><path d="M5.8 0C5.8 2.8 2.9 5.6 0.1 5.6C-2.8 5.6 -5.6 2.8 -5.6 0C-5.6 -2.8 -2.8 -5.6 0.1 -5.6C2.9 -5.6 5.8 -2.8 5.8 0Z" fill="#FFFFFF"></path></g><g transform="translate(841 459)"><path d="M3.8 0C3.8 1.9 1.9 3.8 0 3.8C-1.8 3.8 -3.7 1.9 -3.7 0C-3.7 -1.9 -1.8 -3.9 0 -3.9C1.9 -3.9 3.8 -1.9 3.8 0Z" fill="#FFFFFF"></path></g><g transform="translate(216 284)"><path d="M5.9 0.1C5.9 3.2 2.9 6.5 0 6.5C-3 6.5 -5.9 3.2 -5.9 0.1C-5.9 -3.1 -3 -6.1 0 -6.1C2.9 -6.1 5.9 -3.1 5.9 0.1Z" fill="#FFFFFF"></path></g><g transform="translate(343 280)"><path d="M5.5 0C5.5 2.9 2.8 5.8 0 5.8C-2.8 5.8 -5.5 2.9 -5.5 0C-5.5 -2.8 -2.8 -5.6 0 -5.6C2.8 -5.6 5.5 -2.8 5.5 0Z" fill="#FFFFFF"></path></g><g transform="translate(171 23)"><path d="M6.1 -0.1C6.1 3 3 5.9 -0.1 5.9C-3.2 5.9 -6.4 3 -6.4 -0.1C-6.4 -3.3 -3.2 -6.5 -0.1 -6.5C3 -6.5 6.1 -3.3 6.1 -0.1Z" fill="#FFFFFF"></path></g><g transform="translate(579 259)"><path d="M5.8 0C5.8 2.9 2.9 5.8 0 5.8C-2.9 5.8 -5.8 2.9 -5.8 0C-5.8 -2.8 -2.9 -5.6 0 -5.6C2.9 -5.6 5.8 -2.8 5.8 0Z" fill="#FFFFFF"></path></g><g transform="translate(942 257)"><path d="M6.2 0.1C6.2 3.2 3.1 6.3 0 6.3C-3.1 6.3 -6.3 3.2 -6.3 0.1C-6.3 -3 -3.1 -5.9 0 -5.9C3.1 -5.9 6.2 -3 6.2 0.1Z" fill="#FFFFFF"></path></g><g transform="translate(239 114)"><path d="M5.5 -0.2C5.5 2.6 2.8 5.3 -0.1 5.3C-3 5.3 -6 2.6 -6 -0.2C-6 -3 -3 -5.9 -0.1 -5.9C2.8 -5.9 5.5 -3 5.5 -0.2Z" fill="#FFFFFF"></path></g><g transform="translate(717 84)"><path d="M4.3 0C4.3 2.3 2.2 4.5 -0.1 4.5C-2.3 4.5 -4.6 2.3 -4.6 0C-4.6 -2.3 -2.3 -4.6 -0.1 -4.6C2.2 -4.6 4.3 -2.3 4.3 0Z" fill="#FFFFFF"></path></g><g transform="translate(819 349)"><path d="M3.5 0C3.5 1.9 1.8 3.7 0 3.7C-1.8 3.7 -3.6 1.9 -3.6 0C-3.6 -1.9 -1.8 -3.7 0 -3.7C1.8 -3.7 3.5 -1.9 3.5 0Z" fill="#FFFFFF"></path></g><g transform="translate(602 50)"><path d="M6.5 0.1C6.5 3.1 3.2 6.2 0 6.2C-3.2 6.2 -6.4 3.1 -6.4 0.1C-6.4 -2.9 -3.2 -5.8 0 -5.8C3.2 -5.8 6.5 -2.9 6.5 0.1Z" fill="#FFFFFF"></path></g><g transform="translate(953 349)"><path d="M5.2 0C5.2 2.6 2.6 5.2 0 5.2C-2.6 5.2 -5.1 2.6 -5.1 0C-5.1 -2.6 -2.6 -5.3 0 -5.3C2.6 -5.3 5.2 -2.6 5.2 0Z" fill="#FFFFFF"></path></g><g transform="translate(341 447)"><path d="M4.9 -0.1C4.9 2.4 2.4 4.8 -0.1 4.8C-2.7 4.8 -5.3 2.4 -5.3 -0.1C-5.3 -2.6 -2.7 -5.3 -0.1 -5.3C2.4 -5.3 4.9 -2.6 4.9 -0.1Z" fill="#FFFFFF"></path></g><g transform="translate(856 298)"><path d="M5.4 0C5.4 2.8 2.7 5.5 0 5.5C-2.7 5.5 -5.5 2.8 -5.5 0C-5.5 -2.7 -2.7 -5.4 0 -5.4C2.7 -5.4 5.4 -2.7 5.4 0Z" fill="#FFFFFF"></path></g><g transform="translate(145 169)"><path d="M6.7 0.1C6.7 3.3 3.3 6.5 0 6.5C-3.3 6.5 -6.6 3.3 -6.6 0.1C-6.6 -3 -3.3 -6 0 -6C3.3 -6 6.7 -3 6.7 0.1Z" fill="#FFFFFF"></path></g><g transform="translate(587 537)"><path d="M3.8 -0.1C3.8 1.8 1.9 3.6 0 3.6C-1.9 3.6 -3.9 1.8 -3.9 -0.1C-3.9 -2 -1.9 -3.9 0 -3.9C1.9 -3.9 3.8 -2 3.8 -0.1Z" fill="#FFFFFF"></path></g><g transform="translate(769 488)"><path d="M6.6 0C6.6 3.6 3.3 7.3 -0.1 7.3C-3.5 7.3 -7.1 3.6 -7.1 0C-7.1 -3.6 -3.5 -7.2 -0.1 -7.2C3.3 -7.2 6.6 -3.6 6.6 0Z" fill="#FFFFFF"></path></g><g transform="translate(791 318)"><path d="M4.5 0C4.5 2.1 2.2 4.1 0 4.1C-2.2 4.1 -4.4 2.1 -4.4 0C-4.4 -2.1 -2.2 -4.2 0 -4.2C2.2 -4.2 4.5 -2.1 4.5 0Z" fill="#FFFFFF"></path></g><g transform="translate(798 204)"><path d="M4.3 -0.1C4.3 2.2 2.2 4.4 0 4.4C-2.2 4.4 -4.4 2.2 -4.4 -0.1C-4.4 -2.3 -2.2 -4.7 0 -4.7C2.2 -4.7 4.3 -2.3 4.3 -0.1Z" fill="#FFFFFF"></path></g><g transform="translate(660 1)"><path d="M6.1 0.1C6.1 3.3 3 6.6 0 6.6C-3.1 6.6 -6.2 3.3 -6.2 0.1C-6.2 -3.2 -3.1 -6.3 0 -6.3C3 -6.3 6.1 -3.2 6.1 0.1Z" fill="#FFFFFF"></path></g><g transform="translate(848 391)"><path d="M6.6 0C6.6 3.6 3.3 7.3 -0.1 7.3C-3.4 7.3 -6.9 3.6 -6.9 0C-6.9 -3.6 -3.4 -7.2 -0.1 -7.2C3.3 -7.2 6.6 -3.6 6.6 0Z" fill="#FFFFFF"></path></g><g transform="translate(55 388)"><path d="M5 0C5 2.6 2.5 5.2 -0.1 5.2C-2.6 5.2 -5.2 2.6 -5.2 0C-5.2 -2.6 -2.6 -5.2 -0.1 -5.2C2.5 -5.2 5 -2.6 5 0Z" fill="#FFFFFF"></path></g><g transform="translate(28 402)"><path d="M3.9 0.1C3.9 1.9 1.9 3.9 0.1 3.9C-1.8 3.9 -3.5 1.9 -3.5 0.1C-3.5 -1.8 -1.8 -3.6 0.1 -3.6C1.9 -3.6 3.9 -1.8 3.9 0.1Z" fill="#FFFFFF"></path></g><g transform="translate(251 307)"><path d="M5 0C5 2.7 2.5 5.3 -0.1 5.3C-2.6 5.3 -5.3 2.7 -5.3 0C-5.3 -2.7 -2.6 -5.3 -0.1 -5.3C2.5 -5.3 5 -2.7 5 0Z" fill="#FFFFFF"></path></g><g transform="translate(590 329)"><path d="M5.1 0C5.1 2.5 2.6 5 0.1 5C-2.4 5 -4.8 2.5 -4.8 0C-4.8 -2.5 -2.4 -4.9 0.1 -4.9C2.6 -4.9 5.1 -2.5 5.1 0Z" fill="#FFFFFF"></path></g><g transform="translate(421 385)"><path d="M3.7 0C3.7 1.8 1.9 3.6 0 3.6C-2 3.6 -3.9 1.8 -3.9 0C-3.9 -1.8 -2 -3.6 0 -3.6C1.9 -3.6 3.7 -1.8 3.7 0Z" fill="#FFFFFF"></path></g><g transform="translate(894 503)"><path d="M6.4 0C6.4 3.1 3.2 6.3 0 6.3C-3.2 6.3 -6.5 3.1 -6.5 0C-6.5 -3.2 -3.2 -6.4 0 -6.4C3.2 -6.4 6.4 -3.2 6.4 0Z" fill="#FFFFFF"></path></g><g transform="translate(958 36)"><path d="M4.5 0.1C4.5 2.3 2.3 4.5 0 4.5C-2.2 4.5 -4.5 2.3 -4.5 0.1C-4.5 -2.1 -2.2 -4.3 0 -4.3C2.3 -4.3 4.5 -2.1 4.5 0.1Z" fill="#FFFFFF"></path></g><g transform="translate(459 195)"><path d="M3.9 0C3.9 1.8 2 3.7 0 3.7C-1.9 3.7 -3.9 1.8 -3.9 0C-3.9 -1.8 -1.9 -3.7 0 -3.7C2 -3.7 3.9 -1.8 3.9 0Z" fill="#FFFFFF"></path></g><g transform="translate(300 15)"><path d="M6.1 0C6.1 3.2 3.1 6.4 0.1 6.4C-2.9 6.4 -5.9 3.2 -5.9 0C-5.9 -3.1 -2.9 -6.2 0.1 -6.2C3.1 -6.2 6.1 -3.1 6.1 0Z" fill="#FFFFFF"></path></g><g transform="translate(19 479)"><path d="M4.3 0C4.3 2.3 2.2 4.6 0 4.6C-2.2 4.6 -4.3 2.3 -4.3 0C-4.3 -2.3 -2.2 -4.6 0 -4.6C2.2 -4.6 4.3 -2.3 4.3 0Z" fill="#FFFFFF"></path></g><g transform="translate(793 413)"><path d="M6 0.1C6 3.2 3 6.4 0 6.4C-2.9 6.4 -5.9 3.2 -5.9 0.1C-5.9 -3.1 -2.9 -6.2 0 -6.2C3 -6.2 6 -3.1 6 0.1Z" fill="#FFFFFF"></path></g><g transform="translate(373 51)"><path d="M4.7 0C4.7 2.4 2.3 4.7 -0.1 4.7C-2.6 4.7 -5.1 2.4 -5.1 0C-5.1 -2.4 -2.6 -4.8 -0.1 -4.8C2.3 -4.8 4.7 -2.4 4.7 0Z" fill="#FFFFFF"></path></g><g transform="translate(243 40)"><path d="M6.5 0C6.5 3.6 3.2 7.2 -0.1 7.2C-3.4 7.2 -6.9 3.6 -6.9 0C-6.9 -3.6 -3.4 -7.3 -0.1 -7.3C3.2 -7.3 6.5 -3.6 6.5 0Z" fill="#FFFFFF"></path></g><g transform="translate(728 108)"><path d="M3.7 0.1C3.7 1.9 1.8 3.8 -0.1 3.8C-1.9 3.8 -3.9 1.9 -3.9 0.1C-3.9 -1.8 -1.9 -3.5 -0.1 -3.5C1.8 -3.5 3.7 -1.8 3.7 0.1Z" fill="#FFFFFF"></path></g></g></svg>